<?xml version="1.0" standalone="no"?>
<!DOCTYPE svg PUBLIC "-//W3C//DTD SVG 20010904//EN"
 "http://www.w3.org/TR/2001/REC-SVG-20010904/DTD/svg10.dtd">
<svg version="1.0" xmlns="http://www.w3.org/2000/svg"
 width="500.000000pt" height="500.000000pt" viewBox="0 0 500.000000 500.000000"
 preserveAspectRatio="xMidYMid meet">

<g transform="translate(0.000000,500.000000) scale(0.100000,-0.100000)"
fill="#000000" stroke="none">
<path d="M1160 3600 c0 -5 13 -10 29 -10 38 0 92 -38 113 -80 16 -31 18 -67
18 -287 l0 -253 65 0 65 0 0 286 0 286 173 -4 c169 -3 173 -4 215 -31 84 -55
126 -156 126 -307 0 -91 -22 -160 -66 -207 l-21 -23 84 0 85 0 21 38 c61 108
70 284 21 392 -47 103 -154 179 -282 200 -82 13 -646 13 -646 0z"/>
<path d="M2240 3211 c0 -5 17 -11 38 -15 79 -12 122 -72 122 -171 l0 -55 68 0
67 0 0 88 0 87 159 3 c154 2 162 2 212 -23 52 -25 86 -61 118 -122 l17 -33 79
0 80 0 -24 48 c-51 101 -154 172 -276 192 -79 12 -660 14 -660 1z"/>
<path d="M1327 2903 c-7 -12 -3 -80 6 -89 4 -4 7 0 7 9 0 21 16 22 24 2 3 -8
12 -15 21 -15 19 0 20 16 0 24 -13 4 -13 9 -4 24 17 27 4 52 -25 52 -14 0 -27
-3 -29 -7z m35 -35 c-15 -15 -26 -4 -18 18 5 13 9 15 18 6 9 -9 9 -15 0 -24z"/>
<path d="M1510 2860 c0 -27 5 -50 10 -50 6 0 10 23 10 50 0 28 -4 50 -10 50
-5 0 -10 -22 -10 -50z"/>
<path d="M1644 2901 c3 -5 15 -7 26 -4 26 7 25 -3 -5 -43 -14 -18 -25 -35 -25
-38 0 -3 18 -6 41 -6 22 0 38 4 35 9 -3 5 -15 7 -26 4 -25 -7 -25 1 -2 35 36
52 36 52 -8 52 -23 0 -39 -4 -36 -9z"/>
<path d="M1830 2860 c0 -48 19 -74 21 -27 l0 22 16 -22 c8 -13 22 -23 31 -23
12 0 11 5 -6 20 -26 25 -27 28 -5 52 9 10 13 21 10 24 -4 4 -15 -4 -26 -17
l-20 -24 -1 23 c0 12 -4 22 -10 22 -5 0 -10 -22 -10 -50z"/>
<path d="M2023 2860 c0 -30 2 -43 4 -27 2 15 2 39 0 55 -2 15 -4 2 -4 -28z"/>
<path d="M2425 2865 c1 -41 15 -79 15 -42 0 21 16 22 24 2 3 -8 12 -15 21 -15
19 0 20 16 0 24 -13 4 -13 9 -4 24 18 28 4 52 -29 52 -28 0 -29 -2 -27 -45z
m45 10 c0 -8 -7 -15 -15 -15 -8 0 -15 7 -15 15 0 8 7 15 15 15 8 0 15 -7 15
-15z"/>
<path d="M2610 2860 c0 -27 5 -50 10 -50 6 0 10 23 10 50 0 28 -4 50 -10 50
-5 0 -10 -22 -10 -50z"/>
<path d="M2763 2903 c-14 -5 -18 -43 -5 -43 5 0 17 -7 28 -16 18 -15 17 -15
-15 -10 -29 5 -32 4 -21 -9 19 -22 54 -15 58 12 2 14 -3 23 -17 28 -27 8 -27
29 0 22 13 -3 19 -1 16 6 -4 13 -26 18 -44 10z"/>
<path d="M2930 2860 c0 -27 5 -50 10 -50 6 0 10 10 10 22 l0 22 16 -22 c8 -12
22 -22 31 -22 14 0 13 4 -5 20 -26 25 -27 28 -5 52 9 10 13 21 9 26 -4 4 -16
-4 -27 -17 -19 -23 -19 -23 -19 -2 0 12 -4 21 -10 21 -5 0 -10 -22 -10 -50z"/>
<path d="M3125 2864 c-9 -25 -14 -48 -11 -51 3 -3 8 2 12 11 8 20 43 21 50 1
4 -8 10 -15 15 -15 4 0 -1 23 -13 50 -11 28 -24 50 -28 50 -4 0 -15 -21 -25
-46z m31 -11 c-10 -10 -19 5 -10 18 6 11 8 11 12 0 2 -7 1 -15 -2 -18z"/>
<path d="M1320 2518 c0 -202 -2 -238 -18 -268 -21 -42 -75 -80 -113 -80 -16 0
-29 -4 -29 -10 0 -6 82 -10 225 -10 143 0 225 4 225 10 0 6 -12 10 -26 10 -43
0 -89 29 -112 69 -21 37 -22 51 -22 275 l0 236 -65 0 -65 0 0 -232z"/>
<path d="M1672 2741 c2 -5 107 -126 233 -267 127 -142 246 -276 265 -298 19
-23 78 -85 132 -139 80 -80 98 -104 98 -128 0 -72 -52 -134 -122 -145 -92 -15
-21 -24 192 -24 127 0 230 4 230 9 0 4 -18 11 -40 14 -47 6 -84 28 -100 57
-11 20 -11 20 27 4 113 -49 238 -65 347 -44 76 14 87 30 20 30 -61 0 -155 25
-223 60 -70 35 -176 113 -190 139 -7 13 -11 145 -10 378 l1 358 -66 3 -66 3 0
-308 0 -308 -73 75 c-73 76 -308 333 -426 468 l-64 72 -84 0 c-48 0 -83 -4
-81 -9z"/>
<path d="M3055 2738 c-2 -7 -9 -31 -15 -53 -25 -82 -103 -154 -194 -180 -28
-8 -93 -16 -144 -18 -51 -2 -95 -7 -98 -10 -3 -2 10 -14 29 -26 37 -23 135
-126 422 -446 99 -110 182 -202 185 -205 3 -3 39 -43 80 -89 244 -274 499
-392 740 -340 63 14 65 29 2 29 -26 0 -75 7 -107 15 -196 51 -317 155 -820
703 -143 156 -261 287 -263 291 -1 5 23 13 55 20 68 13 146 62 190 118 38 47
78 127 86 171 l7 32 -76 0 c-51 0 -76 -4 -79 -12z"/>
</g>
</svg>
